<svg width="100%" height="100%" viewBox="0 0 4267 4267" version="1.1"
    xmlns="http://www.w3.org/2000/svg"
    style="fill-rule:evenodd;clip-rule:evenodd;stroke-linecap:round;"
>
    <defs>
        <filter id="glow">
            <feDropShadow dx="0" dy="0" stdDeviation="30" flood-color="#2eb86a" flood-opacity="0.6"/>
        </filter>
    </defs>
    <g id="gunsole_lines" fill="none" fill-rule="nonzero" stroke-width="214.24">
        <g id="bg_lines" style="opacity: 0.9;">
            <g id="bg_lines_1" stroke="#134a20">
                <path d="M441.71,3152.78l770.79,0" />
                <path d="M2484.74,3152.78l1013.93,0" />
                <path d="M2386.89,2133.31l1064.54,0" />
                <path d="M1609.33,2643.03l1160.79,0" />
                <path d="M441.71,604.145l770.79,0" />
                <path d="M2484.74,604.145l1013.93,0" />
                <path d="M622.396,3407.66l770.79,0" />
                <path d="M2665.43,3662.52l578.472,0" />
                <path d="M622.396,3662.52l770.79,0" />
            </g>
            <g id="bg_lines_2" stroke="#1a5a2a">
                <path d="M2898.24,1623.57l416.342,0" />
                <path d="M1753.23,2133.31l393.837,0" />
            </g>
            <g id="bg_lines_3" stroke="#2a7a3a">
                <path d="M1459.81,3152.78l777.453,0" />
                <path d="M1459.81,604.145l777.453,0" />
                <path d="M1640.5,3407.66l777.452,0" />
                <path d="M1640.5,3662.52l777.452,0" />
            </g>
            <g id="bg_lines_4" stroke="#3a9a4a">
                <path d="M1601,2886.83l669.51,0" />
                <path d="M1714.02,2388.17l669.51,0" />
            </g>
        </g>
        <g id="main_lines" stroke="#2eb86a" filter="url(#glow)">
            <path d="M441.71,859.006l996.138,0" />
            <path d="M1687.87,859.006l996.138,0" />
            <path d="M2935.18,859.006l889.779,0" />
            <path d="M2517.64,1368.71l1196.12,0" />
            <path d="M2155.88,1113.82l1600.41,0" />
            <path d="M981.597,1368.71l1255.66,0" />
            <path d="M675.26,1113.82l1204.62,0" />
            <path d="M1056.25,1623.57l681.381,0" />
            <path d="M2094.12,1623.57l35.2,0" />
            <path d="M2629.73,1623.57l1.172,0" />
            <path d="M922.526,1878.43l868.317,0" />
            <path d="M2046.77,1878.43l637.239,0" />
            <path d="M836.849,2133.31l676.563,0" />
            <path d="M675.26,2388.17l762.588,0" />
            <path d="M533.095,2643.03l836.741,0" />
            <path d="M441.71,2897.92l882.661,0" />
        </g>
    </g>
</svg>